<svg width="48" height="48" viewBox="0 0 48 48" fill="none" xmlns="http://www.w3.org/2000/svg">
<rect width="48" height="48" rx="24" fill="#EAF0FF"/>
<path d="M17.999 29.9983H25.999" stroke="#155DFC" stroke-width="1.9998" stroke-linecap="round" stroke-linejoin="round"/>
<path d="M15 33.9978H32.9982" stroke="#155DFC" stroke-width="1.9998" stroke-linecap="round" stroke-linejoin="round"/>
<path d="M25.9989 33.9979C27.8553 33.9979 29.6356 33.2605 30.9482 31.9478C32.2608 30.6352 32.9982 28.8549 32.9982 26.9986C32.9982 25.1422 32.2608 23.3619 30.9482 22.0493C29.6356 20.7367 27.8553 19.9993 25.9989 19.9993H24.999" stroke="#155DFC" stroke-width="1.9998" stroke-linecap="round" stroke-linejoin="round"/>
<path d="M20.999 25.9985H22.999" stroke="#155DFC" stroke-width="1.9998" stroke-linecap="round" stroke-linejoin="round"/>
<path d="M20.999 23.9995C20.4686 23.9995 19.9599 23.7888 19.5848 23.4137C19.2097 23.0387 18.999 22.5299 18.999 21.9995V17.9995H24.999V21.9995C24.999 22.5299 24.7883 23.0387 24.4132 23.4137C24.0382 23.7888 23.5295 23.9995 22.999 23.9995H20.999Z" stroke="#155DFC" stroke-width="1.9998" stroke-linecap="round" stroke-linejoin="round"/>
<path d="M23.999 17.9998V14.9998C23.999 14.7345 23.8937 14.4802 23.7061 14.2926C23.5186 14.1051 23.2642 13.9998 22.999 13.9998H20.999C20.7338 13.9998 20.4795 14.1051 20.2919 14.2926C20.1044 14.4802 19.999 14.7345 19.999 14.9998V17.9998" stroke="#155DFC" stroke-width="1.9998" stroke-linecap="round" stroke-linejoin="round"/>
</svg>
