<svg width="48" height="48" viewBox="0 0 48 48" fill="none" xmlns="http://www.w3.org/2000/svg">
<rect width="48" height="48" rx="24" fill="#EBFFF3"/>
<path d="M23.998 18.9993V32.9979" stroke="#00A63E" stroke-width="1.9998" stroke-linecap="round" stroke-linejoin="round"/>
<path d="M14.9999 29.9983C14.7347 29.9983 14.4804 29.8929 14.2929 29.7054C14.1053 29.5179 14 29.2636 14 28.9984V15.9997C14 15.7345 14.1053 15.4801 14.2929 15.2926C14.4804 15.1051 14.7347 14.9998 14.9999 14.9998H19.9994C21.0602 14.9998 22.0775 15.4211 22.8276 16.1712C23.5776 16.9213 23.999 17.9386 23.999 18.9994C23.999 17.9386 24.4204 16.9213 25.1705 16.1712C25.9205 15.4211 26.9379 14.9998 27.9986 14.9998H32.9981C33.2633 14.9998 33.5177 15.1051 33.7052 15.2926C33.8927 15.4801 33.998 15.7345 33.998 15.9997V28.9984C33.998 29.2636 33.8927 29.5179 33.7052 29.7054C33.5177 29.8929 33.2633 29.9983 32.9981 29.9983H26.9987C26.2032 29.9983 25.4402 30.3143 24.8776 30.8769C24.3151 31.4394 23.999 32.2024 23.999 32.998C23.999 32.2024 23.683 31.4394 23.1204 30.8769C22.5579 30.3143 21.7949 29.9983 20.9993 29.9983H14.9999Z" stroke="#00A63E" stroke-width="1.9998" stroke-linecap="round" stroke-linejoin="round"/>
</svg>
