<svg width="48" height="48" viewBox="0 0 48 48" fill="none" xmlns="http://www.w3.org/2000/svg">
<rect width="48" height="48" rx="24" fill="#FEE3FF"/>
<path d="M21.999 23.9988H25.999" stroke="#B241B7" stroke-width="1.9998" stroke-linecap="round" stroke-linejoin="round"/>
<path d="M21.999 19.9992H25.999" stroke="#B241B7" stroke-width="1.9998" stroke-linecap="round" stroke-linejoin="round"/>
<path d="M25.999 32.9984V29.9984C25.999 29.468 25.7883 28.9593 25.4132 28.5842C25.0382 28.2091 24.5295 27.9984 23.999 27.9984C23.4686 27.9984 22.9599 28.2091 22.5848 28.5842C22.2097 28.9593 21.999 29.468 21.999 29.9984V32.9984" stroke="#B241B7" stroke-width="1.9998" stroke-linecap="round" stroke-linejoin="round"/>
<path d="M17.9996 21.999H15.9998C15.4694 21.999 14.9608 22.2097 14.5857 22.5848C14.2107 22.9598 14 23.4685 14 23.9988V30.9981C14 31.5285 14.2107 32.0372 14.5857 32.4122C14.9608 32.7873 15.4694 32.998 15.9998 32.998H31.9982C32.5286 32.998 33.0373 32.7873 33.4123 32.4122C33.7873 32.0372 33.998 31.5285 33.998 30.9981V20.9991C33.998 20.4688 33.7873 19.9601 33.4123 19.5851C33.0373 19.21 32.5286 18.9993 31.9982 18.9993H29.9984" stroke="#B241B7" stroke-width="1.9998" stroke-linecap="round" stroke-linejoin="round"/>
<path d="M17.999 32.9979V16.9995C17.999 16.4691 18.2097 15.9605 18.5848 15.5854C18.9598 15.2104 19.4684 14.9997 19.9988 14.9997H27.998C28.5284 14.9997 29.0371 15.2104 29.4121 15.5854C29.7872 15.9605 29.9978 16.4691 29.9978 16.9995V32.9979" stroke="#B241B7" stroke-width="1.9998" stroke-linecap="round" stroke-linejoin="round"/>
</svg>
