<svg width="40" height="40" viewBox="0 0 40 40" fill="none" xmlns="http://www.w3.org/2000/svg">
<path d="M0 14C0 6.26801 6.26801 0 14 0H26C33.732 0 40 6.26801 40 14V26C40 33.732 33.732 40 26 40H14C6.26801 40 0 33.732 0 26V14Z" fill="#FEE3FF"/>
<path d="M19.9912 29.9993C25.5135 29.9993 29.9902 25.5225 29.9902 20.0002C29.9902 14.4779 25.5135 10.0012 19.9912 10.0012C14.4689 10.0012 9.99219 14.4779 9.99219 20.0002C9.99219 25.5225 14.4689 29.9993 19.9912 29.9993Z" stroke="#B241B7" stroke-width="1.9998" stroke-linecap="round" stroke-linejoin="round"/>
<path d="M19.9916 25.9994C23.305 25.9994 25.991 23.3134 25.991 20C25.991 16.6866 23.305 14.0006 19.9916 14.0006C16.6782 14.0006 13.9922 16.6866 13.9922 20C13.9922 23.3134 16.6782 25.9994 19.9916 25.9994Z" stroke="#B241B7" stroke-width="1.9998" stroke-linecap="round" stroke-linejoin="round"/>
<path d="M19.9902 22.0002C21.0948 22.0002 21.9902 21.1048 21.9902 20.0002C21.9902 18.8957 21.0948 18.0002 19.9902 18.0002C18.8857 18.0002 17.9902 18.8957 17.9902 20.0002C17.9902 21.1048 18.8857 22.0002 19.9902 22.0002Z" stroke="#B241B7" stroke-width="1.9998" stroke-linecap="round" stroke-linejoin="round"/>
</svg>
