<svg width="48" height="48" viewBox="0 0 48 48" fill="none" xmlns="http://www.w3.org/2000/svg">
<rect width="48" height="48" rx="24" fill="#FEE3FF"/>
<path d="M23.5605 15.2657C23.6037 15.1873 23.6671 15.1219 23.7441 15.0764C23.8211 15.0309 23.909 15.0068 23.9985 15.0068C24.0879 15.0068 24.1758 15.0309 24.2528 15.0764C24.3299 15.1219 24.3933 15.1873 24.4364 15.2657L27.3881 20.8691C27.4585 20.9989 27.5568 21.1114 27.6758 21.1987C27.7949 21.286 27.9318 21.3458 28.0767 21.3739C28.2216 21.402 28.3709 21.3977 28.514 21.3612C28.657 21.3248 28.7902 21.2571 28.904 21.1631L33.1806 17.4994C33.2627 17.4327 33.3638 17.3937 33.4695 17.388C33.5752 17.3824 33.6799 17.4105 33.7686 17.4682C33.8573 17.5259 33.9254 17.6102 33.9631 17.7091C34.0009 17.808 34.0062 17.9163 33.9785 18.0184L31.1448 28.2634C31.0869 28.473 30.9623 28.6581 30.7898 28.7905C30.6173 28.923 30.4063 28.9956 30.1889 28.9973H17.8091C17.5914 28.9958 17.3802 28.9233 17.2075 28.7908C17.0348 28.6584 16.9101 28.4732 16.8522 28.2634L14.0194 18.0194C13.9917 17.9173 13.9971 17.809 14.0348 17.7101C14.0725 17.6112 14.1406 17.5269 14.2293 17.4692C14.318 17.4115 14.4228 17.3834 14.5284 17.389C14.6341 17.3947 14.7353 17.4337 14.8174 17.5004L19.0929 21.1641C19.2067 21.2581 19.3399 21.3258 19.483 21.3622C19.626 21.3987 19.7754 21.403 19.9203 21.3749C20.0652 21.3468 20.2021 21.287 20.3211 21.1997C20.4402 21.1124 20.5384 20.9999 20.6088 20.8701L23.5605 15.2657Z" stroke="#9810FA" stroke-width="1.9998" stroke-linecap="round" stroke-linejoin="round"/>
<path d="M16.999 32.998H30.9976" stroke="#9810FA" stroke-width="1.9998" stroke-linecap="round" stroke-linejoin="round"/>
</svg>
