<svg width="48" height="48" viewBox="0 0 48 48" fill="none" xmlns="http://www.w3.org/2000/svg">
<rect width="48" height="48" rx="24" fill="#FFE2D6"/>
<path d="M15.9994 25.9987C15.8102 25.9994 15.6247 25.9463 15.4644 25.8457C15.3041 25.7451 15.1757 25.6011 15.094 25.4305C15.0124 25.2598 14.9808 25.0694 15.003 24.8815C15.0252 24.6936 15.1003 24.5158 15.2195 24.3689L25.1185 14.1699C25.1928 14.0842 25.294 14.0263 25.4055 14.0057C25.517 13.985 25.6322 14.0029 25.7322 14.0564C25.8322 14.1099 25.911 14.1958 25.9558 14.3C26.0005 14.4042 26.0085 14.5205 25.9784 14.6299L24.0586 20.6493C24.002 20.8008 23.983 20.9638 24.0032 21.1242C24.0234 21.2847 24.0823 21.4379 24.1747 21.5706C24.2671 21.7033 24.3904 21.8117 24.5338 21.8863C24.6773 21.9609 24.8368 21.9997 24.9985 21.9991H31.9978C32.1871 21.9985 32.3726 22.0515 32.5328 22.1521C32.6931 22.2527 32.8215 22.3967 32.9032 22.5674C32.9849 22.7381 33.0164 22.9285 32.9942 23.1164C32.972 23.3043 32.897 23.482 32.7778 23.629L22.8787 33.828C22.8045 33.9137 22.7033 33.9716 22.5918 33.9922C22.4803 34.0128 22.3651 33.9949 22.2651 33.9415C22.1651 33.888 22.0862 33.8021 22.0415 33.6979C21.9967 33.5937 21.9887 33.4774 22.0188 33.368L23.9386 27.3486C23.9952 27.1971 24.0142 27.0341 23.994 26.8736C23.9738 26.7132 23.915 26.56 23.8225 26.4273C23.7301 26.2945 23.6069 26.1862 23.4634 26.1116C23.3199 26.0369 23.1605 25.9982 22.9987 25.9987H15.9994Z" stroke="#F54900" stroke-width="1.9998" stroke-linecap="round" stroke-linejoin="round"/>
</svg>
