<svg width="48" height="48" viewBox="0 0 48 48" fill="none" xmlns="http://www.w3.org/2000/svg">
<rect width="48" height="48" rx="24" fill="#FEE3FF"/>
<path d="M31.9984 24.9987C31.9984 29.9982 28.4988 32.498 24.3392 33.9478C24.1214 34.0216 23.8848 34.0181 23.6692 33.9378C19.4997 32.498 16 29.9982 16 24.9987V17.9994C16 17.7342 16.1053 17.4799 16.2929 17.2923C16.4804 17.1048 16.7347 16.9995 16.9999 16.9995C18.9997 16.9995 21.4995 15.7996 23.2393 14.2798C23.4511 14.0988 23.7206 13.9993 23.9992 13.9993C24.2778 13.9993 24.5473 14.0988 24.7591 14.2798C26.509 15.8096 28.9987 16.9995 30.9985 16.9995C31.2637 16.9995 31.518 17.1048 31.7056 17.2923C31.8931 17.4799 31.9984 17.7342 31.9984 17.9994V24.9987Z" stroke="#B241B7" stroke-width="1.9998" stroke-linecap="round" stroke-linejoin="round"/>
</svg>
