<svg width="50" height="50" viewBox="0 0 50 50" fill="none" xmlns="http://www.w3.org/2000/svg">
<path d="M0 14C0 6.26801 6.26801 0 14 0H36C43.732 0 50 6.26801 50 14V36C50 43.732 43.732 50 36 50H14C6.26801 50 0 43.732 0 36V14Z" fill="#FEE3FF"/>
<path d="M34.5293 27.9998H29.9893C29.4588 27.9998 28.9501 28.2105 28.575 28.5855C28.2 28.9606 27.9893 29.4693 27.9893 29.9998V34.5398" stroke="#B241B7" stroke-width="1.9998" stroke-linecap="round" stroke-linejoin="round"/>
<path d="M19.9902 16.3409V18.0008C19.9902 18.7964 20.3063 19.5593 20.8688 20.1219C21.4314 20.6844 22.1944 21.0005 22.9899 21.0005C23.5203 21.0005 24.029 21.2112 24.404 21.5862C24.779 21.9612 24.9897 22.4699 24.9897 23.0003C24.9897 24.1002 25.8897 25.0001 26.9895 25.0001C27.5199 25.0001 28.0286 24.7894 28.4036 24.4144C28.7787 24.0393 28.9893 23.5307 28.9893 23.0003C28.9893 21.9004 29.8893 21.0005 30.9892 21.0005H34.1588" stroke="#B241B7" stroke-width="1.9998" stroke-linecap="round" stroke-linejoin="round"/>
<path d="M23.9901 34.949V30.9994C23.9901 30.4691 23.7794 29.9604 23.4044 29.5854C23.0294 29.2103 22.5207 28.9996 21.9903 28.9996C21.46 28.9996 20.9513 28.7889 20.5763 28.4139C20.2012 28.0389 19.9905 27.5302 19.9905 26.9998V25.9999C19.9905 25.4695 19.7798 24.9609 19.4048 24.5859C19.0298 24.2108 18.5211 24.0001 17.9907 24.0001H15.041" stroke="#B241B7" stroke-width="1.9998" stroke-linecap="round" stroke-linejoin="round"/>
<path d="M24.9902 34.9993C30.5125 34.9993 34.9892 30.5225 34.9892 25.0002C34.9892 19.4779 30.5125 15.0012 24.9902 15.0012C19.4679 15.0012 14.9912 19.4779 14.9912 25.0002C14.9912 30.5225 19.4679 34.9993 24.9902 34.9993Z" stroke="#B241B7" stroke-width="1.9998" stroke-linecap="round" stroke-linejoin="round"/>
</svg>
